<svg xmlns="http://www.w3.org/2000/svg" xmlns:xlink="http://www.w3.org/1999/xlink" width="1157" zoomAndPan="magnify" viewBox="0 0 867.75 231.75" height="309" preserveAspectRatio="xMidYMid meet" version="1.0"><defs><filter x="0%" y="0%" width="100%" height="100%" id="5efe235220"><feColorMatrix values="0 0 0 0 1 0 0 0 0 1 0 0 0 0 1 0 0 0 1 0" color-interpolation-filters="sRGB"/></filter><clipPath id="ecbf4fc11c"><path d="M 0.34375 0 L 289.195312 0 L 289.195312 231.15625 L 0.34375 231.15625 Z M 0.34375 0 " clip-rule="nonzero"/></clipPath><clipPath id="ec898d3f5b"><path d="M 289.089844 0 L 577.945312 0 L 577.945312 231.15625 L 289.089844 231.15625 Z M 289.089844 0 " clip-rule="nonzero"/></clipPath><clipPath id="695c923fe3"><path d="M 577.945312 3.796875 L 867 3.796875 L 867 231.15625 L 577.945312 231.15625 Z M 577.945312 3.796875 " clip-rule="nonzero"/></clipPath><clipPath id="521689c059"><path d="M 866.796875 60.636719 C 866.796875 29.375 841.144531 3.796875 809.792969 3.796875 L 634.949219 3.796875 C 603.59375 3.796875 577.945312 29.375 577.945312 60.636719 C 577.945312 91.898438 603.59375 117.476562 634.949219 117.476562 C 603.59375 117.476562 577.945312 143.054688 577.945312 174.316406 C 577.945312 205.578125 603.59375 231.15625 634.949219 231.15625 L 809.792969 231.15625 C 841.144531 231.15625 866.796875 205.578125 866.796875 174.316406 C 866.796875 143.054688 841.144531 117.476562 809.792969 117.476562 C 841.144531 117.476562 866.796875 91.898438 866.796875 60.636719 Z M 866.796875 60.636719 " clip-rule="nonzero"/></clipPath><clipPath id="38f75420ba"><path d="M 405 30 L 520.542969 30 L 520.542969 204.183594 L 405 204.183594 Z M 405 30 " clip-rule="nonzero"/></clipPath><clipPath id="594743f5bc"><path d="M 346.730469 22.878906 L 506 22.878906 L 506 200 L 346.730469 200 Z M 346.730469 22.878906 " clip-rule="nonzero"/></clipPath><clipPath id="c9c85a8552"><path d="M 346.730469 62 L 418 62 L 418 200 L 346.730469 200 Z M 346.730469 62 " clip-rule="nonzero"/></clipPath><mask id="ac4da4a452"><g filter="url(#5efe235220)"><rect x="-86.775" width="1041.3" fill="#000000" y="-23.175" height="278.1" fill-opacity="0.4"/></g></mask><clipPath id="1dff81dbca"><path d="M 0.359375 0.183594 L 131.976562 0.183594 L 131.976562 110.464844 L 0.359375 110.464844 Z M 0.359375 0.183594 " clip-rule="nonzero"/></clipPath><clipPath id="919bc5e49c"><rect x="0" width="132" y="0" height="111"/></clipPath><clipPath id="eed5147bc9"><path d="M 154 24.738281 L 210 24.738281 L 210 80 L 154 80 Z M 154 24.738281 " clip-rule="nonzero"/></clipPath><clipPath id="0e515ac560"><path d="M 76.945312 84 L 137 84 L 137 144 L 76.945312 144 Z M 76.945312 84 " clip-rule="nonzero"/></clipPath></defs><g clip-path="url(#ecbf4fc11c)"><path fill="#ffffff" d="M 0.34375 0 L 289.289062 0 L 289.289062 231.15625 L 0.34375 231.15625 Z M 0.34375 0 " fill-opacity="1" fill-rule="nonzero"/></g><g clip-path="url(#ec898d3f5b)"><path fill="#fc079b" d="M 289.089844 0 L 578.039062 0 L 578.039062 231.15625 L 289.089844 231.15625 Z M 289.089844 0 " fill-opacity="1" fill-rule="nonzero"/></g><g clip-path="url(#695c923fe3)"><g clip-path="url(#521689c059)"><path fill="#5e17eb" d="M 577.945312 3.796875 L 866.585938 3.796875 L 866.585938 231.15625 L 577.945312 231.15625 Z M 577.945312 3.796875 " fill-opacity="1" fill-rule="nonzero"/></g></g><g clip-path="url(#38f75420ba)"><path fill="#5ce1e6" d="M 438.90625 34.898438 C 446.914062 33.5625 454.929688 32.230469 462.9375 30.894531 C 482.078125 74.515625 501.214844 118.128906 520.355469 161.75 C 486.972656 175.992188 453.59375 190.234375 420.210938 204.476562 C 415.3125 202.695312 410.421875 200.914062 405.523438 199.136719 C 416.648438 144.386719 427.773438 89.640625 438.90625 34.898438 Z M 438.90625 34.898438 " fill-opacity="1" fill-rule="nonzero"/></g><g clip-path="url(#594743f5bc)"><path fill="#5ce1e6" d="M 346.773438 66.941406 L 446.914062 22.878906 L 505.667969 155.070312 L 405.523438 199.132812 Z M 346.773438 66.941406 " fill-opacity="1" fill-rule="nonzero"/></g><g clip-path="url(#c9c85a8552)"><path fill="#5ce1e6" d="M 346.773438 66.941406 L 357.550781 62.199219 L 417.007812 193.933594 L 405.523438 199.132812 Z M 346.773438 66.941406 " fill-opacity="1" fill-rule="nonzero"/></g><g mask="url(#ac4da4a452)"><g transform="matrix(1, 0, 0, 1, 356, 89)"><g clip-path="url(#919bc5e49c)"><g clip-path="url(#1dff81dbca)"><path fill="#5e17eb" d="M 0.820312 0.546875 L 49.523438 110.132812 L 131.554688 74.035156 C 66.632812 58.996094 24.601562 25.722656 0.820312 0.546875 Z M 0.820312 0.546875 " fill-opacity="1" fill-rule="nonzero"/></g></g></g></g><path fill="#e9eaea" d="M 409.6875 197.300781 L 420.210938 201.320312 L 516.351562 160.410156 L 460.371094 31.320312 L 448.390625 26.207031 C 467.484375 69.164062 486.574219 112.113281 505.660156 155.070312 C 473.671875 169.144531 441.679688 183.222656 409.6875 197.300781 Z M 409.6875 197.300781 " fill-opacity="1" fill-rule="nonzero"/><path fill="#393536" d="M 111.476562 119.898438 C 110.007812 121.15625 107.511719 120.652344 105.902344 118.773438 C 104.292969 116.890625 104.183594 114.347656 105.652344 113.089844 L 185.007812 45.179688 C 186.480469 43.921875 188.976562 44.421875 190.585938 46.304688 C 192.195312 48.183594 192.304688 50.730469 190.835938 51.984375 L 111.476562 119.898438 " fill-opacity="1" fill-rule="nonzero"/><g clip-path="url(#eed5147bc9)"><path fill="#fc079b" d="M 209.601562 52.09375 C 209.601562 67.183594 197.371094 79.421875 182.277344 79.421875 C 167.1875 79.421875 154.949219 67.183594 154.949219 52.09375 C 154.949219 37 167.1875 24.765625 182.277344 24.765625 C 197.371094 24.765625 209.601562 37 209.601562 52.09375 " fill-opacity="1" fill-rule="nonzero"/></g><path fill="#393536" d="M 99.902344 123.113281 C 98.335938 121.972656 98.246094 119.433594 99.703125 117.429688 C 101.160156 115.429688 103.605469 114.730469 105.171875 115.867188 L 189.628906 177.324219 C 191.195312 178.460938 191.28125 181.007812 189.828125 183.007812 C 188.371094 185.007812 185.921875 185.707031 184.359375 184.566406 L 99.902344 123.113281 " fill-opacity="1" fill-rule="nonzero"/><path fill="#fc079b" d="M 188.605469 202.851562 C 173.921875 206.347656 159.1875 197.285156 155.6875 182.601562 C 152.191406 167.921875 161.253906 153.183594 175.933594 149.683594 C 190.617188 146.183594 205.351562 155.253906 208.851562 169.933594 C 212.351562 184.613281 203.289062 199.351562 188.605469 202.851562 " fill-opacity="1" fill-rule="nonzero"/><g clip-path="url(#0e515ac560)"><path fill="#ff78e5" d="M 136.058594 114.183594 C 136.058594 130.511719 122.820312 143.75 106.492188 143.75 C 90.164062 143.75 76.925781 130.511719 76.925781 114.183594 C 76.925781 97.851562 90.164062 84.617188 106.492188 84.617188 C 122.820312 84.617188 136.058594 97.851562 136.058594 114.183594 " fill-opacity="1" fill-rule="nonzero"/></g></svg>