<svg xmlns="http://www.w3.org/2000/svg" xmlns:xlink="http://www.w3.org/1999/xlink" width="2045" zoomAndPan="magnify" viewBox="0 0 1533.75 493.49999" height="658" preserveAspectRatio="xMidYMid meet" version="1.0"><defs><filter x="0%" y="0%" width="100%" height="100%" id="69b19f9335"><feColorMatrix values="0 0 0 0 1 0 0 0 0 1 0 0 0 0 1 0 0 0 1 0" color-interpolation-filters="sRGB"/></filter><clipPath id="679002872a"><path d="M 613 0 L 919.632812 0 L 919.632812 245.175781 L 613 245.175781 Z M 613 0 " clip-rule="nonzero"/></clipPath><clipPath id="6cfd574d68"><path d="M 857.925781 122.585938 L 826.386719 122.585938 L 909.023438 51.984375 C 931.476562 32.800781 915.574219 0 883.824219 0 L 684.902344 0 C 645.445312 0 613.164062 27.582031 613.164062 61.292969 C 613.164062 95.144531 640.746094 122.585938 674.773438 122.585938 L 706.308594 122.585938 L 623.675781 193.191406 C 601.222656 212.375 617.125 245.175781 648.875 245.175781 L 847.796875 245.175781 C 887.25 245.175781 919.53125 217.59375 919.53125 183.882812 C 919.53125 150.03125 891.949219 122.585938 857.925781 122.585938 Z M 857.925781 122.585938 " clip-rule="nonzero"/></clipPath><clipPath id="589b19699f"><path d="M 613.277344 245.175781 L 919.644531 245.175781 L 919.644531 490.351562 L 613.277344 490.351562 Z M 613.277344 245.175781 " clip-rule="nonzero"/></clipPath><clipPath id="bc43f2d7fe"><path d="M 919.535156 245.175781 L 1225.902344 245.175781 L 1225.902344 490.351562 L 919.535156 490.351562 Z M 919.535156 245.175781 " clip-rule="nonzero"/></clipPath><clipPath id="fa7622913b"><path d="M 306.796875 0 L 613.164062 0 L 613.164062 245.175781 L 306.796875 245.175781 Z M 306.796875 0 " clip-rule="nonzero"/></clipPath><clipPath id="e5ebadbe0d"><path d="M 1225.902344 249.203125 L 1532.847656 249.203125 L 1532.847656 490.351562 L 1225.902344 490.351562 Z M 1225.902344 249.203125 " clip-rule="nonzero"/></clipPath><clipPath id="bd39f19284"><path d="M 1532.269531 309.488281 C 1532.269531 276.332031 1505.0625 249.203125 1471.808594 249.203125 L 1286.363281 249.203125 C 1253.109375 249.203125 1225.902344 276.332031 1225.902344 309.488281 C 1225.902344 342.648438 1253.109375 369.777344 1286.363281 369.777344 C 1253.109375 369.777344 1225.902344 396.90625 1225.902344 430.0625 C 1225.902344 463.222656 1253.109375 490.351562 1286.363281 490.351562 L 1471.808594 490.351562 C 1505.0625 490.351562 1532.269531 463.222656 1532.269531 430.0625 C 1532.269531 396.90625 1505.0625 369.777344 1471.808594 369.777344 C 1505.0625 369.777344 1532.269531 342.648438 1532.269531 309.488281 Z M 1532.269531 309.488281 " clip-rule="nonzero"/></clipPath><clipPath id="4ca9b6f7f6"><path d="M 0.652344 245.164062 L 307.007812 245.164062 L 307.007812 492.355469 L 0.652344 492.355469 Z M 0.652344 245.164062 " clip-rule="nonzero"/></clipPath><clipPath id="54433defc6"><path d="M 0.640625 492.355469 C 0.640625 492.355469 196.035156 492.355469 196.035156 492.355469 C 257.148438 492.355469 306.710938 441.707031 306.996094 379.121094 L 307.007812 379.121094 L 307.007812 245.164062 L 65.992188 245.164062 C 30.046875 245.164062 0.640625 275.273438 0.640625 312.121094 C 0.640625 348.972656 30.046875 379.121094 65.992188 379.121094 L 100.878906 379.121094 C 44.628906 384.660156 0.640625 433.234375 0.640625 492.355469 Z M 0.640625 492.355469 " clip-rule="nonzero"/></clipPath><clipPath id="91ff9e54ed"><path d="M 1043 277 L 1164.980469 277 L 1164.980469 461.996094 L 1043 461.996094 Z M 1043 277 " clip-rule="nonzero"/></clipPath><clipPath id="70513fa218"><path d="M 980.667969 269.441406 L 1150 269.441406 L 1150 457 L 980.667969 457 Z M 980.667969 269.441406 " clip-rule="nonzero"/></clipPath><clipPath id="0ceadf631e"><path d="M 980.667969 311 L 1056 311 L 1056 457 L 980.667969 457 Z M 980.667969 311 " clip-rule="nonzero"/></clipPath><mask id="7a319a8b7a"><g filter="url(#69b19f9335)"><rect x="-153.375" width="1840.5" fill="#000000" y="-49.349999" height="592.199988" fill-opacity="0.4"/></g></mask><clipPath id="10dc96cba4"><path d="M 0.0859375 1 L 139.625 1 L 139.625 117.738281 L 0.0859375 117.738281 Z M 0.0859375 1 " clip-rule="nonzero"/></clipPath><clipPath id="0dcd74f0bc"><rect x="0" width="140" y="0" height="118"/></clipPath><clipPath id="26aefaeaf8"><path d="M 777 271.414062 L 836 271.414062 L 836 330 L 777 330 Z M 777 271.414062 " clip-rule="nonzero"/></clipPath><clipPath id="de4b0d5585"><path d="M 694.527344 334 L 758 334 L 758 398 L 694.527344 398 Z M 694.527344 334 " clip-rule="nonzero"/></clipPath></defs><g clip-path="url(#679002872a)"><g clip-path="url(#6cfd574d68)"><path fill="#5e17eb" d="M 613.164062 0 L 919.632812 0 L 919.632812 245.175781 L 613.164062 245.175781 Z M 613.164062 0 " fill-opacity="1" fill-rule="nonzero"/></g></g><g clip-path="url(#589b19699f)"><path fill="#5ce1e6" d="M 613.277344 245.175781 L 919.746094 245.175781 L 919.746094 490.351562 L 613.277344 490.351562 Z M 613.277344 245.175781 " fill-opacity="1" fill-rule="nonzero"/></g><g clip-path="url(#bc43f2d7fe)"><path fill="#fc079b" d="M 919.535156 245.175781 L 1226 245.175781 L 1226 490.351562 L 919.535156 490.351562 Z M 919.535156 245.175781 " fill-opacity="1" fill-rule="nonzero"/></g><g clip-path="url(#fa7622913b)"><path fill="#ff78e5" d="M 306.796875 0 L 613.265625 0 L 613.265625 245.175781 L 306.796875 245.175781 Z M 306.796875 0 " fill-opacity="1" fill-rule="nonzero"/></g><g clip-path="url(#e5ebadbe0d)"><g clip-path="url(#bd39f19284)"><path fill="#5e17eb" d="M 1225.902344 249.203125 L 1532.046875 249.203125 L 1532.046875 490.351562 L 1225.902344 490.351562 Z M 1225.902344 249.203125 " fill-opacity="1" fill-rule="nonzero"/></g></g><g clip-path="url(#4ca9b6f7f6)"><g clip-path="url(#54433defc6)"><path fill="#fc079b" d="M 307.007812 492.355469 L 0.921875 492.355469 L 0.921875 245.164062 L 307.007812 245.164062 Z M 307.007812 492.355469 " fill-opacity="1" fill-rule="nonzero"/></g></g><g clip-path="url(#91ff9e54ed)"><path fill="#5ce1e6" d="M 1078.4375 282.191406 C 1086.929688 280.773438 1095.433594 279.359375 1103.925781 277.941406 C 1124.230469 324.207031 1144.523438 370.46875 1164.824219 416.734375 C 1129.417969 431.84375 1094.015625 446.949219 1058.609375 462.054688 C 1053.414062 460.164062 1048.222656 458.273438 1043.027344 456.390625 C 1054.828125 398.316406 1066.628906 340.25 1078.4375 282.191406 Z M 1078.4375 282.191406 " fill-opacity="1" fill-rule="nonzero"/></g><g clip-path="url(#70513fa218)"><path fill="#5ce1e6" d="M 980.714844 316.175781 L 1086.929688 269.441406 L 1149.246094 409.652344 L 1043.027344 456.386719 Z M 980.714844 316.175781 " fill-opacity="1" fill-rule="nonzero"/></g><g clip-path="url(#0ceadf631e)"><path fill="#5ce1e6" d="M 980.714844 316.175781 L 992.144531 311.148438 L 1055.210938 450.871094 L 1043.027344 456.386719 Z M 980.714844 316.175781 " fill-opacity="1" fill-rule="nonzero"/></g><g mask="url(#7a319a8b7a)"><g transform="matrix(1, 0, 0, 1, 991, 339)"><g clip-path="url(#0dcd74f0bc)"><g clip-path="url(#10dc96cba4)"><path fill="#5e17eb" d="M 0.371094 1.152344 L 52.027344 117.386719 L 139.035156 79.101562 C 70.175781 63.148438 25.59375 27.859375 0.371094 1.152344 Z M 0.371094 1.152344 " fill-opacity="1" fill-rule="nonzero"/></g></g></g></g><path fill="#e9eaea" d="M 1047.445312 454.445312 L 1058.609375 458.707031 L 1160.578125 415.3125 L 1101.207031 278.394531 L 1088.496094 272.972656 C 1108.746094 318.535156 1128.996094 364.089844 1149.238281 409.652344 C 1115.3125 424.578125 1081.378906 439.511719 1047.445312 454.445312 Z M 1047.445312 454.445312 " fill-opacity="1" fill-rule="nonzero"/><path fill="#393536" d="M 731.152344 372.34375 C 729.59375 373.679688 726.945312 373.140625 725.238281 371.148438 C 723.53125 369.15625 723.414062 366.457031 724.972656 365.125 L 809.144531 293.089844 C 810.703125 291.757812 813.351562 292.289062 815.058594 294.289062 C 816.765625 296.28125 816.882812 298.976562 815.324219 300.3125 L 731.152344 372.34375 " fill-opacity="1" fill-rule="nonzero"/><g clip-path="url(#26aefaeaf8)"><path fill="#fc079b" d="M 835.230469 300.425781 C 835.230469 316.433594 822.253906 329.410156 806.246094 329.410156 C 790.238281 329.410156 777.261719 316.433594 777.261719 300.425781 C 777.261719 284.417969 790.238281 271.441406 806.246094 271.441406 C 822.253906 271.441406 835.230469 284.417969 835.230469 300.425781 " fill-opacity="1" fill-rule="nonzero"/></g><path fill="#393536" d="M 718.871094 375.753906 C 717.214844 374.542969 717.117188 371.847656 718.664062 369.726562 C 720.207031 367.601562 722.804688 366.863281 724.460938 368.070312 L 814.042969 433.25 C 815.707031 434.460938 815.796875 437.160156 814.253906 439.28125 C 812.710938 441.402344 810.109375 442.144531 808.453125 440.933594 L 718.871094 375.753906 " fill-opacity="1" fill-rule="nonzero"/><path fill="#fc079b" d="M 812.957031 460.328125 C 797.386719 464.035156 781.753906 454.421875 778.042969 438.851562 C 774.335938 423.28125 783.949219 407.648438 799.519531 403.9375 C 815.089844 400.226562 830.722656 409.84375 834.433594 425.414062 C 838.144531 440.984375 828.53125 456.617188 812.957031 460.328125 " fill-opacity="1" fill-rule="nonzero"/><g clip-path="url(#de4b0d5585)"><path fill="#ff78e5" d="M 757.226562 366.28125 C 757.226562 383.601562 743.183594 397.640625 725.863281 397.640625 C 708.546875 397.640625 694.503906 383.601562 694.503906 366.28125 C 694.503906 348.960938 708.546875 334.921875 725.863281 334.921875 C 743.183594 334.921875 757.226562 348.960938 757.226562 366.28125 " fill-opacity="1" fill-rule="nonzero"/></g></svg>