<svg xmlns="http://www.w3.org/2000/svg" xmlns:xlink="http://www.w3.org/1999/xlink" width="307" zoomAndPan="magnify" viewBox="0 0 230.25 161.249994" height="215" preserveAspectRatio="xMidYMid meet" version="1.0"><defs><clipPath id="3271f918b6"><path d="M 0.160156 0 L 173.304688 0 L 173.304688 159.445312 L 0.160156 159.445312 Z M 0.160156 0 " clip-rule="nonzero"/></clipPath><clipPath id="c69ba87e43"><path d="M 66.601562 0 L 106.648438 0 C 124.269531 0 141.171875 7 153.628906 19.460938 C 166.089844 31.921875 173.089844 48.820312 173.089844 66.441406 L 173.089844 93.003906 C 173.089844 110.625 166.089844 127.523438 153.628906 139.984375 C 141.171875 152.445312 124.269531 159.445312 106.648438 159.445312 L 66.601562 159.445312 C 48.980469 159.445312 32.078125 152.445312 19.621094 139.984375 C 7.160156 127.523438 0.160156 110.625 0.160156 93.003906 L 0.160156 66.441406 C 0.160156 48.820312 7.160156 31.921875 19.621094 19.460938 C 32.078125 7 48.980469 0 66.601562 0 Z M 66.601562 0 " clip-rule="nonzero"/></clipPath><clipPath id="347a2bbf4a"><path d="M 56.371094 0.878906 L 229.34375 0.878906 L 229.34375 160.324219 L 56.371094 160.324219 Z M 56.371094 0.878906 " clip-rule="nonzero"/></clipPath><clipPath id="bb61b0bae8"><path d="M 122.8125 0.878906 L 162.859375 0.878906 C 180.480469 0.878906 197.382812 7.878906 209.839844 20.339844 C 222.300781 32.800781 229.300781 49.699219 229.300781 67.320312 L 229.300781 93.882812 C 229.300781 111.503906 222.300781 128.402344 209.839844 140.863281 C 197.382812 153.324219 180.480469 160.324219 162.859375 160.324219 L 122.8125 160.324219 C 105.191406 160.324219 88.289062 153.324219 75.832031 140.863281 C 63.371094 128.402344 56.371094 111.503906 56.371094 93.882812 L 56.371094 67.320312 C 56.371094 49.699219 63.371094 32.800781 75.832031 20.339844 C 88.289062 7.878906 105.191406 0.878906 122.8125 0.878906 Z M 122.8125 0.878906 " clip-rule="nonzero"/></clipPath></defs><g clip-path="url(#3271f918b6)"><g clip-path="url(#c69ba87e43)"><path fill="#5ce1e6" d="M 0.160156 0 L 173.304688 0 L 173.304688 159.445312 L 0.160156 159.445312 Z M 0.160156 0 " fill-opacity="1" fill-rule="nonzero"/></g></g><g clip-path="url(#347a2bbf4a)"><g clip-path="url(#bb61b0bae8)"><path fill="#ff009b" d="M 56.371094 0.878906 L 229.515625 0.878906 L 229.515625 160.324219 L 56.371094 160.324219 Z M 56.371094 0.878906 " fill-opacity="1" fill-rule="nonzero"/></g></g></svg>