<svg xmlns="http://www.w3.org/2000/svg" xmlns:xlink="http://www.w3.org/1999/xlink" width="1080" zoomAndPan="magnify" viewBox="0 0 810 76.499998" height="102" preserveAspectRatio="xMidYMid meet" version="1.0"><defs><clipPath id="3a6bf017dd"><path d="M 2.816406 0.101562 L 138.121094 0.101562 L 138.121094 75.792969 L 2.816406 75.792969 Z M 2.816406 0.101562 " clip-rule="nonzero"/></clipPath><clipPath id="7bdf3c1075"><path d="M 36.640625 -76.683594 C 18.035156 -76.683594 2.816406 -63.917969 2.816406 -48.3125 L 2.816406 47.417969 C 2.816406 63.023438 18.035156 75.792969 36.640625 75.792969 C 55.246094 75.792969 70.46875 63.023438 70.46875 47.417969 C 70.46875 63.023438 85.691406 75.792969 104.292969 75.792969 C 122.898438 75.792969 138.121094 63.023438 138.121094 47.417969 L 138.121094 -48.3125 C 138.121094 -63.917969 122.898438 -76.683594 104.292969 -76.683594 C 85.691406 -76.683594 70.46875 -63.917969 70.46875 -48.3125 C 70.46875 -63.917969 55.246094 -76.683594 36.640625 -76.683594 Z M 36.640625 -76.683594 " clip-rule="nonzero"/></clipPath><clipPath id="7fc64fe8ba"><path d="M 136.238281 0.101562 L 271.542969 0.101562 L 271.542969 75.792969 L 136.238281 75.792969 Z M 136.238281 0.101562 " clip-rule="nonzero"/></clipPath><clipPath id="0ff50e2cc4"><path d="M 170.066406 -76.683594 C 151.460938 -76.683594 136.238281 -63.917969 136.238281 -48.3125 L 136.238281 47.417969 C 136.238281 63.023438 151.460938 75.792969 170.066406 75.792969 C 188.667969 75.792969 203.890625 63.023438 203.890625 47.417969 C 203.890625 63.023438 219.113281 75.792969 237.71875 75.792969 C 256.320312 75.792969 271.542969 63.023438 271.542969 47.417969 L 271.542969 -48.3125 C 271.542969 -63.917969 256.320312 -76.683594 237.71875 -76.683594 C 219.113281 -76.683594 203.890625 -63.917969 203.890625 -48.3125 C 203.890625 -63.917969 188.667969 -76.683594 170.066406 -76.683594 Z M 170.066406 -76.683594 " clip-rule="nonzero"/></clipPath><clipPath id="f0671c6f9b"><path d="M 269.921875 0.101562 L 405.226562 0.101562 L 405.226562 75.792969 L 269.921875 75.792969 Z M 269.921875 0.101562 " clip-rule="nonzero"/></clipPath><clipPath id="a343551dcf"><path d="M 303.75 -76.683594 C 285.144531 -76.683594 269.921875 -63.917969 269.921875 -48.3125 L 269.921875 47.417969 C 269.921875 63.023438 285.144531 75.792969 303.75 75.792969 C 322.355469 75.792969 337.574219 63.023438 337.574219 47.417969 C 337.574219 63.023438 352.796875 75.792969 371.402344 75.792969 C 390.007812 75.792969 405.226562 63.023438 405.226562 47.417969 L 405.226562 -48.3125 C 405.226562 -63.917969 390.007812 -76.683594 371.402344 -76.683594 C 352.796875 -76.683594 337.574219 -63.917969 337.574219 -48.3125 C 337.574219 -63.917969 322.355469 -76.683594 303.75 -76.683594 Z M 303.75 -76.683594 " clip-rule="nonzero"/></clipPath><clipPath id="176b3a8c27"><path d="M 404.667969 0.101562 L 539.972656 0.101562 L 539.972656 75.792969 L 404.667969 75.792969 Z M 404.667969 0.101562 " clip-rule="nonzero"/></clipPath><clipPath id="b06f7b72b2"><path d="M 438.496094 -76.683594 C 419.890625 -76.683594 404.667969 -63.917969 404.667969 -48.3125 L 404.667969 47.417969 C 404.667969 63.023438 419.890625 75.792969 438.496094 75.792969 C 457.097656 75.792969 472.320312 63.023438 472.320312 47.417969 C 472.320312 63.023438 487.542969 75.792969 506.148438 75.792969 C 524.75 75.792969 539.972656 63.023438 539.972656 47.417969 L 539.972656 -48.3125 C 539.972656 -63.917969 524.75 -76.683594 506.148438 -76.683594 C 487.542969 -76.683594 472.320312 -63.917969 472.320312 -48.3125 C 472.320312 -63.917969 457.097656 -76.683594 438.496094 -76.683594 Z M 438.496094 -76.683594 " clip-rule="nonzero"/></clipPath><clipPath id="2d1db1f654"><path d="M 538.09375 0.101562 L 673.398438 0.101562 L 673.398438 75.792969 L 538.09375 75.792969 Z M 538.09375 0.101562 " clip-rule="nonzero"/></clipPath><clipPath id="0f399d5d78"><path d="M 571.917969 -76.683594 C 553.3125 -76.683594 538.09375 -63.917969 538.09375 -48.3125 L 538.09375 47.417969 C 538.09375 63.023438 553.3125 75.792969 571.917969 75.792969 C 590.523438 75.792969 605.746094 63.023438 605.746094 47.417969 C 605.746094 63.023438 620.964844 75.792969 639.570312 75.792969 C 658.175781 75.792969 673.398438 63.023438 673.398438 47.417969 L 673.398438 -48.3125 C 673.398438 -63.917969 658.175781 -76.683594 639.570312 -76.683594 C 620.964844 -76.683594 605.746094 -63.917969 605.746094 -48.3125 C 605.746094 -63.917969 590.523438 -76.683594 571.917969 -76.683594 Z M 571.917969 -76.683594 " clip-rule="nonzero"/></clipPath><clipPath id="f0c68a585b"><path d="M 671.777344 0.101562 L 807.082031 0.101562 L 807.082031 75.792969 L 671.777344 75.792969 Z M 671.777344 0.101562 " clip-rule="nonzero"/></clipPath><clipPath id="dcf200d8e8"><path d="M 705.601562 -76.683594 C 687 -76.683594 671.777344 -63.917969 671.777344 -48.3125 L 671.777344 47.417969 C 671.777344 63.023438 687 75.792969 705.601562 75.792969 C 724.207031 75.792969 739.429688 63.023438 739.429688 47.417969 C 739.429688 63.023438 754.652344 75.792969 773.253906 75.792969 C 791.859375 75.792969 807.082031 63.023438 807.082031 47.417969 L 807.082031 -48.3125 C 807.082031 -63.917969 791.859375 -76.683594 773.253906 -76.683594 C 754.652344 -76.683594 739.429688 -63.917969 739.429688 -48.3125 C 739.429688 -63.917969 724.207031 -76.683594 705.601562 -76.683594 Z M 705.601562 -76.683594 " clip-rule="nonzero"/></clipPath></defs><g clip-path="url(#3a6bf017dd)"><g clip-path="url(#7bdf3c1075)"><path fill="#5e17eb" d="M 2.816406 -76.472656 L 138.121094 -76.472656 L 138.121094 75.792969 L 2.816406 75.792969 Z M 2.816406 -76.472656 " fill-opacity="1" fill-rule="nonzero"/></g></g><g clip-path="url(#7fc64fe8ba)"><g clip-path="url(#0ff50e2cc4)"><path fill="#5e17eb" d="M 136.238281 -76.472656 L 271.542969 -76.472656 L 271.542969 75.792969 L 136.238281 75.792969 Z M 136.238281 -76.472656 " fill-opacity="1" fill-rule="nonzero"/></g></g><g clip-path="url(#f0671c6f9b)"><g clip-path="url(#a343551dcf)"><path fill="#5e17eb" d="M 269.921875 -76.472656 L 405.226562 -76.472656 L 405.226562 75.792969 L 269.921875 75.792969 Z M 269.921875 -76.472656 " fill-opacity="1" fill-rule="nonzero"/></g></g><g clip-path="url(#176b3a8c27)"><g clip-path="url(#b06f7b72b2)"><path fill="#5e17eb" d="M 404.667969 -76.472656 L 539.972656 -76.472656 L 539.972656 75.792969 L 404.667969 75.792969 Z M 404.667969 -76.472656 " fill-opacity="1" fill-rule="nonzero"/></g></g><g clip-path="url(#2d1db1f654)"><g clip-path="url(#0f399d5d78)"><path fill="#5e17eb" d="M 538.09375 -76.472656 L 673.398438 -76.472656 L 673.398438 75.792969 L 538.09375 75.792969 Z M 538.09375 -76.472656 " fill-opacity="1" fill-rule="nonzero"/></g></g><g clip-path="url(#f0c68a585b)"><g clip-path="url(#dcf200d8e8)"><path fill="#5e17eb" d="M 671.777344 -76.472656 L 807.082031 -76.472656 L 807.082031 75.792969 L 671.777344 75.792969 Z M 671.777344 -76.472656 " fill-opacity="1" fill-rule="nonzero"/></g></g></svg>