<svg xmlns="http://www.w3.org/2000/svg" xmlns:xlink="http://www.w3.org/1999/xlink" width="1080" zoomAndPan="magnify" viewBox="0 0 810 76.499998" height="102" preserveAspectRatio="xMidYMid meet" version="1.0"><defs><clipPath id="dcb299dfc5"><path d="M 671.878906 0.3125 L 807.183594 0.3125 L 807.183594 76.003906 L 671.878906 76.003906 Z M 671.878906 0.3125 " clip-rule="nonzero"/></clipPath><clipPath id="1c8ebfecca"><path d="M 773.359375 152.789062 C 791.964844 152.789062 807.183594 140.023438 807.183594 124.414062 L 807.183594 28.6875 C 807.183594 13.082031 791.964844 0.3125 773.359375 0.3125 C 754.753906 0.3125 739.53125 13.082031 739.53125 28.6875 C 739.53125 13.082031 724.308594 0.3125 705.707031 0.3125 C 687.101562 0.3125 671.878906 13.082031 671.878906 28.6875 L 671.878906 124.414062 C 671.878906 140.023438 687.101562 152.789062 705.707031 152.789062 C 724.308594 152.789062 739.53125 140.023438 739.53125 124.414062 C 739.53125 140.023438 754.753906 152.789062 773.359375 152.789062 Z M 773.359375 152.789062 " clip-rule="nonzero"/></clipPath><clipPath id="7e138df4f7"><path d="M 538.457031 0.3125 L 673.761719 0.3125 L 673.761719 76.003906 L 538.457031 76.003906 Z M 538.457031 0.3125 " clip-rule="nonzero"/></clipPath><clipPath id="59e140a6c6"><path d="M 639.933594 152.789062 C 658.539062 152.789062 673.761719 140.023438 673.761719 124.414062 L 673.761719 28.6875 C 673.761719 13.082031 658.539062 0.3125 639.933594 0.3125 C 621.332031 0.3125 606.109375 13.082031 606.109375 28.6875 C 606.109375 13.082031 590.886719 0.3125 572.28125 0.3125 C 553.679688 0.3125 538.457031 13.082031 538.457031 28.6875 L 538.457031 124.414062 C 538.457031 140.023438 553.679688 152.789062 572.28125 152.789062 C 590.886719 152.789062 606.109375 140.023438 606.109375 124.414062 C 606.109375 140.023438 621.332031 152.789062 639.933594 152.789062 Z M 639.933594 152.789062 " clip-rule="nonzero"/></clipPath><clipPath id="a8395830c2"><path d="M 404.773438 0.3125 L 540.078125 0.3125 L 540.078125 76.003906 L 404.773438 76.003906 Z M 404.773438 0.3125 " clip-rule="nonzero"/></clipPath><clipPath id="4f7d364df1"><path d="M 506.25 152.789062 C 524.855469 152.789062 540.078125 140.023438 540.078125 124.414062 L 540.078125 28.6875 C 540.078125 13.082031 524.855469 0.3125 506.25 0.3125 C 487.644531 0.3125 472.425781 13.082031 472.425781 28.6875 C 472.425781 13.082031 457.203125 0.3125 438.597656 0.3125 C 419.992188 0.3125 404.773438 13.082031 404.773438 28.6875 L 404.773438 124.414062 C 404.773438 140.023438 419.992188 152.789062 438.597656 152.789062 C 457.203125 152.789062 472.425781 140.023438 472.425781 124.414062 C 472.425781 140.023438 487.644531 152.789062 506.25 152.789062 Z M 506.25 152.789062 " clip-rule="nonzero"/></clipPath><clipPath id="5be1191b5e"><path d="M 270.027344 0.3125 L 405.332031 0.3125 L 405.332031 76.003906 L 270.027344 76.003906 Z M 270.027344 0.3125 " clip-rule="nonzero"/></clipPath><clipPath id="62a87f9405"><path d="M 371.503906 152.789062 C 390.109375 152.789062 405.332031 140.023438 405.332031 124.414062 L 405.332031 28.6875 C 405.332031 13.082031 390.109375 0.3125 371.503906 0.3125 C 352.902344 0.3125 337.679688 13.082031 337.679688 28.6875 C 337.679688 13.082031 322.457031 0.3125 303.851562 0.3125 C 285.25 0.3125 270.027344 13.082031 270.027344 28.6875 L 270.027344 124.414062 C 270.027344 140.023438 285.25 152.789062 303.851562 152.789062 C 322.457031 152.789062 337.679688 140.023438 337.679688 124.414062 C 337.679688 140.023438 352.902344 152.789062 371.503906 152.789062 Z M 371.503906 152.789062 " clip-rule="nonzero"/></clipPath><clipPath id="bed8e308d3"><path d="M 136.601562 0.3125 L 271.90625 0.3125 L 271.90625 76.003906 L 136.601562 76.003906 Z M 136.601562 0.3125 " clip-rule="nonzero"/></clipPath><clipPath id="ba0889dae9"><path d="M 238.082031 152.789062 C 256.6875 152.789062 271.90625 140.023438 271.90625 124.414062 L 271.90625 28.6875 C 271.90625 13.082031 256.6875 0.3125 238.082031 0.3125 C 219.476562 0.3125 204.253906 13.082031 204.253906 28.6875 C 204.253906 13.082031 189.03125 0.3125 170.429688 0.3125 C 151.824219 0.3125 136.601562 13.082031 136.601562 28.6875 L 136.601562 124.414062 C 136.601562 140.023438 151.824219 152.789062 170.429688 152.789062 C 189.03125 152.789062 204.253906 140.023438 204.253906 124.414062 C 204.253906 140.023438 219.476562 152.789062 238.082031 152.789062 Z M 238.082031 152.789062 " clip-rule="nonzero"/></clipPath><clipPath id="752d9487d1"><path d="M 2.917969 0.3125 L 138.222656 0.3125 L 138.222656 76.003906 L 2.917969 76.003906 Z M 2.917969 0.3125 " clip-rule="nonzero"/></clipPath><clipPath id="a25409d7c9"><path d="M 104.398438 152.789062 C 123 152.789062 138.222656 140.023438 138.222656 124.414062 L 138.222656 28.6875 C 138.222656 13.082031 123 0.3125 104.398438 0.3125 C 85.792969 0.3125 70.570312 13.082031 70.570312 28.6875 C 70.570312 13.082031 55.347656 0.3125 36.746094 0.3125 C 18.140625 0.3125 2.917969 13.082031 2.917969 28.6875 L 2.917969 124.414062 C 2.917969 140.023438 18.140625 152.789062 36.746094 152.789062 C 55.347656 152.789062 70.570312 140.023438 70.570312 124.414062 C 70.570312 140.023438 85.792969 152.789062 104.398438 152.789062 Z M 104.398438 152.789062 " clip-rule="nonzero"/></clipPath></defs><g clip-path="url(#dcb299dfc5)"><g clip-path="url(#1c8ebfecca)"><path fill="#5e17eb" d="M 807.183594 152.578125 L 671.878906 152.578125 L 671.878906 0.3125 L 807.183594 0.3125 Z M 807.183594 152.578125 " fill-opacity="1" fill-rule="nonzero"/></g></g><g clip-path="url(#7e138df4f7)"><g clip-path="url(#59e140a6c6)"><path fill="#5e17eb" d="M 673.761719 152.578125 L 538.457031 152.578125 L 538.457031 0.3125 L 673.761719 0.3125 Z M 673.761719 152.578125 " fill-opacity="1" fill-rule="nonzero"/></g></g><g clip-path="url(#a8395830c2)"><g clip-path="url(#4f7d364df1)"><path fill="#5e17eb" d="M 540.078125 152.578125 L 404.773438 152.578125 L 404.773438 0.3125 L 540.078125 0.3125 Z M 540.078125 152.578125 " fill-opacity="1" fill-rule="nonzero"/></g></g><g clip-path="url(#5be1191b5e)"><g clip-path="url(#62a87f9405)"><path fill="#5e17eb" d="M 405.332031 152.578125 L 270.027344 152.578125 L 270.027344 0.3125 L 405.332031 0.3125 Z M 405.332031 152.578125 " fill-opacity="1" fill-rule="nonzero"/></g></g><g clip-path="url(#bed8e308d3)"><g clip-path="url(#ba0889dae9)"><path fill="#5e17eb" d="M 271.90625 152.578125 L 136.601562 152.578125 L 136.601562 0.3125 L 271.90625 0.3125 Z M 271.90625 152.578125 " fill-opacity="1" fill-rule="nonzero"/></g></g><g clip-path="url(#752d9487d1)"><g clip-path="url(#a25409d7c9)"><path fill="#5e17eb" d="M 138.222656 152.578125 L 2.917969 152.578125 L 2.917969 0.3125 L 138.222656 0.3125 Z M 138.222656 152.578125 " fill-opacity="1" fill-rule="nonzero"/></g></g></svg>